<?xml version="1.0" standalone="no"?>
<!DOCTYPE svg PUBLIC "-//W3C//DTD SVG 20010904//EN"
 "http://www.w3.org/TR/2001/REC-SVG-20010904/DTD/svg10.dtd">
<svg xmlns="http://www.w3.org/2000/svg" version="1.1" xmlns:xlink="http://www.w3.org/1999/xlink" xmlns:svgjs="http://svgjs.com/svgjs" width="512" height="512" x="0" y="0" viewBox="0 0 512 512" style="enable-background:new 0 0 512 512" xml:space="preserve" class=""><g><path d="M100.688 31.064a7.5 7.5 0 0 0-7.5 7.5v31.042a7.5 7.5 0 0 0 7.5 7.5h62.125a7.5 7.5 0 0 0 7.5-7.5V38.564a7.5 7.5 0 0 0-7.5-7.5zm54.625 31.042h-47.125V46.064h47.125zM356.564 54.033c0-12.7-10.332-23.031-23.031-23.031s-23.031 10.332-23.031 23.031 10.332 23.031 23.031 23.031 23.031-10.331 23.031-23.031zm-31.062 0c0-4.428 3.603-8.031 8.031-8.031s8.031 3.603 8.031 8.031-3.603 8.031-8.031 8.031-8.031-3.603-8.031-8.031zM294.562 54.033c0-12.7-10.332-23.031-23.031-23.031S248.5 41.333 248.5 54.033s10.332 23.031 23.031 23.031 23.031-10.331 23.031-23.031zm-31.062 0c0-4.428 3.603-8.031 8.031-8.031s8.031 3.603 8.031 8.031-3.603 8.031-8.031 8.031-8.031-3.603-8.031-8.031zM186.376 69.564a7.5 7.5 0 0 0 7.5 7.5h31.062c4.143 0 7.5-3.358 7.5-7.5s-3.357-7.5-7.5-7.5h-31.062a7.5 7.5 0 0 0-7.5 7.5z" fill="#ffffff" data-original="#000000" class="" opacity="1"></path><path d="M470.968 447.586c11.215-6.961 12.364-26.34 5.405-36.275 6.959-9.935 5.81-29.316-5.407-36.276 6.193-6.844 9.97-15.913 9.97-25.849 0-21.263-17.299-38.562-38.562-38.562H418.81V210.22c0-4.142-3.357-7.5-7.5-7.5s-7.5 3.358-7.5 7.5v100.404h-49.377a132.552 132.552 0 0 0 2.127-23.685c0-72.581-59.044-131.63-131.619-131.63-72.581 0-131.631 59.049-131.631 131.63 0 70.284 55.371 127.878 124.781 131.454a38.473 38.473 0 0 0 9.317 18.766c-8.408 5.199-11.393 19.84-8.889 28.78l-148.891-.004-.219.003c-12.888-.082-23.348-10.592-23.348-23.499V108.168h357.75v69.361c0 4.142 3.357 7.5 7.5 7.5s7.5-3.358 7.5-7.5V38.5c0-21.229-17.271-38.5-38.5-38.5H225.75c-4.143 0-7.5 3.358-7.5 7.5s3.357 7.5 7.5 7.5h154.56c12.958 0 23.5 10.542 23.5 23.5v54.668H46.06V38.5c0-12.958 10.542-23.5 23.5-23.5h123.51c4.143 0 7.5-3.358 7.5-7.5s-3.357-7.5-7.5-7.5H69.56c-21.229 0-38.5 17.271-38.5 38.5v403.94c0 18.687 13.383 34.306 31.067 37.779v24.279a7.5 7.5 0 0 0 7.5 7.5h62.124a7.5 7.5 0 0 0 7.5-7.5V480.94h79.273C215.495 491.762 220.8 512 235.29 512h207.08c21.268 0 38.57-17.298 38.57-38.56 0-9.937-3.777-19.009-9.972-25.854zM255.619 434.87c-12.817-.204-23.181-10.694-23.181-23.559v-.042c.002-.066.003-.133.003-.199l-.001-.069c.167-12.85 10.672-23.252 23.56-23.252h207.006c3.906 5.354 3.906 10.708 0 16.062l-121.036-.001c-4.143 0-7.5 3.358-7.5 7.5s3.357 7.5 7.5 7.5l121.036.001c3.906 5.354 3.906 10.708 0 16.062zM139.157 284.895c1.153-46.248 39.137-83.515 85.663-83.515 41.679 0 76.502 29.914 84.128 69.4-11.36-2.99-22.509 3.683-28.637 13.003-4.483 8.964-13.645 7.384-17.646-.171-10.226-19.306-34.004-15.329-44.478.171-4.505 9.007-13.354 7.717-17.677-.232-10.306-18.954-34.542-15.943-44.485.185-3.417 6.801-12.786 7.196-16.868 1.159zm8.035 19.252c9.086-.772 17.894-5.138 22.231-13.669 2.91-5.722 11.91-10.812 17.662-.236 9.027 16.596 36.754 20.099 44.525.234 3.055-7.81 13.161-9.104 17.646-.14 9.913 16.036 34.792 19.079 44.477.144 3.267-6.387 11.743-8.451 16.746-1.526a85.441 85.441 0 0 1-3.262 21.671h-71.925c-10.012 0-17.854 10.117-17.854 23.031 0 6.038 1.714 11.464 4.563 15.531-4.476 7.518-5.659 15.294-3.552 23.329-38.846-2.868-70.573-31.749-77.781-69.243 2.091.568 4.28.869 6.524.874zm318.744 45.04c0 12.993-10.569 23.562-23.562 23.562H235.395c-4.162-1.35-2.74-14.922-.027-16.062h207.005c4.143 0 7.5-3.358 7.5-7.5s-3.357-7.5-7.5-7.5H235.368c-3.908-5.354-3.908-10.708 0-16.062h207.006c12.992 0 23.562 10.569 23.562 23.562zM108.31 286.94c0-64.31 52.32-116.63 116.631-116.63 72.626 0 128.897 69.096 114.214 140.314h-16.43c14.912-62.056-33.91-124.245-97.903-124.245-55.521 0-100.69 45.165-100.69 100.68 0 54.859 46.515 101.045 101.365 100.687a38.414 38.414 0 0 0-7.236 15.633c-61.217-3.473-109.951-54.372-109.951-116.439zm15.941 210.058H77.127V480.94h47.124zM442.37 497H235.367c-3.303-3.667-2.93-13.558.174-16.064h206.831c4.143 0 7.5-3.358 7.5-7.5s-3.357-7.5-7.5-7.5H235.358c-3.186-1.408-4.145-14.072.012-16.065l207.383.003c12.822.205 23.189 10.697 23.189 23.566-.002 12.991-10.575 23.56-23.572 23.56z" fill="#ffffff" data-original="#000000" class="" opacity="1"></path><path d="M309.28 403.81H256c-4.143 0-7.5 3.358-7.5 7.5s3.357 7.5 7.5 7.5h53.28c4.143 0 7.5-3.358 7.5-7.5s-3.357-7.5-7.5-7.5z" fill="#ffffff" data-original="#000000" class="" opacity="1"></path></g></svg>
